<?xml version="1.0" encoding="UTF-8"?>
<svg width="20px" height="24px" viewBox="0 0 20 24" version="1.1" xmlns="http://www.w3.org/2000/svg" xmlns:xlink="http://www.w3.org/1999/xlink">
    <!-- Generator: Sketch 52.5 (67469) - http://www.bohemiancoding.com/sketch -->
    <title>document</title>
    <desc>Created with Sketch.</desc>
    <g id="Page-1" stroke="none" stroke-width="1" fill="none" fill-rule="evenodd">
        <g id="Digital-Marketing-home-page" transform="translate(-520.000000, -1313.000000)" fill="#000000" fill-rule="nonzero">
            <g id="Group-15" transform="translate(0.000000, 556.000000)">
                <g id="Group-14">
                    <g id="Services" transform="translate(200.000000, 387.000000)">
                        <g id="Group-8-Copy-4" transform="translate(300.000000, 350.000000)">
                            <g id="document" transform="translate(20.000000, 20.000000)">
                                <path d="M17.7083333,4.5 L15.625,4.5 C15.2808333,4.5 15,4.20525 15,3.84375 L15,2.15625 C15,0.96675 13.9733333,0 12.7083333,0 L2.29166667,0 C1.0275,0 0,0.96675 0,2.15625 L0,21.84375 C0,23.0325 1.0275,24 2.29166667,24 L17.7083333,24 C18.9733333,24 20,23.0325 20,21.84375 L20,6.65625 C20,5.46675 18.9733333,4.5 17.7083333,4.5 Z M18.3333333,21.84375 C18.3333333,22.20525 18.0525,22.5 17.7083333,22.5 L2.29166667,22.5 C1.9475,22.5 1.66666667,22.20525 1.66666667,21.84375 L1.66666667,2.15625 C1.66666667,1.79475 1.9475,1.5 2.29166667,1.5 L12.7083333,1.5 C13.0525,1.5 13.3333333,1.79475 13.3333333,2.15625 L13.3333333,3.84375 C13.3333333,5.03325 14.36,6 15.625,6 L17.7083333,6 C18.0525,6 18.3333333,6.29475 18.3333333,6.65625 L18.3333333,21.84375 Z M4.16666667,7.5 L10.8333333,7.5 C11.2941667,7.5 11.6666667,7.16475 11.6666667,6.75 C11.6666667,6.33525 11.2941667,6 10.8333333,6 L4.16666667,6 C3.70583333,6 3.33333333,6.33525 3.33333333,6.75 C3.33333333,7.16475 3.70583333,7.5 4.16666667,7.5 Z M15.8333333,9 L4.16666667,9 C3.70583333,9 3.33333333,9.33525 3.33333333,9.75 C3.33333333,10.16475 3.70583333,10.5 4.16666667,10.5 L15.8333333,10.5 C16.2941667,10.5 16.6666667,10.16475 16.6666667,9.75 C16.6666667,9.33525 16.2941667,9 15.8333333,9 Z M15.8333333,12 L4.16666667,12 C3.70583333,12 3.33333333,12.33525 3.33333333,12.75 C3.33333333,13.16475 3.70583333,13.5 4.16666667,13.5 L15.8333333,13.5 C16.2941667,13.5 16.6666667,13.16475 16.6666667,12.75 C16.6666667,12.33525 16.2941667,12 15.8333333,12 Z M15.8333333,15 L4.16666667,15 C3.70583333,15 3.33333333,15.33525 3.33333333,15.75 C3.33333333,16.164 3.70583333,16.5 4.16666667,16.5 L15.8333333,16.5 C16.2941667,16.5 16.6666667,16.164 16.6666667,15.75 C16.6666667,15.33525 16.2941667,15 15.8333333,15 Z M15.8333333,18 L4.16666667,18 C3.70583333,18 3.33333333,18.33525 3.33333333,18.75 C3.33333333,19.164 3.70583333,19.5 4.16666667,19.5 L15.8333333,19.5 C16.2941667,19.5 16.6666667,19.164 16.6666667,18.75 C16.6666667,18.33525 16.2941667,18 15.8333333,18 Z" id="Shape"></path>
                            </g>
                        </g>
                    </g>
                </g>
            </g>
        </g>
    </g>
</svg>