<?xml version="1.0" encoding="UTF-8"?>
<svg width="37px" height="37px" viewBox="0 0 37 37" version="1.1" xmlns="http://www.w3.org/2000/svg" xmlns:xlink="http://www.w3.org/1999/xlink">
    <!-- Generator: Sketch 52.5 (67469) - http://www.bohemiancoding.com/sketch -->
    <title>Group 16</title>
    <desc>Created with Sketch.</desc>
    <g id="Page-1" stroke="none" stroke-width="1" fill="none" fill-rule="evenodd">
        <g id="Digital-Marketing-home-page" transform="translate(-806.000000, -2484.000000)">
            <g id="Group-12" transform="translate(0.000000, 2385.000000)">
                <g id="Group-11" transform="translate(200.000000, 100.000000)">
                    <g id="Group-16" transform="translate(607.000000, 0.000000)">
                        <circle id="Oval" stroke="#FFFFFF" cx="17.5" cy="17.5" r="17.5"></circle>
                        <g id="icons8-facebook-(1)" transform="translate(7.000000, 7.000000)" fill="#FFFFFF" fill-rule="nonzero">
                            <path d="M10.5,0 C16.3145364,0 21,4.71539565 21,10.5670758 C21,15.869723 17.1482351,20.2267265 12.0996094,21 L12.0996094,13.7170762 L15.1552734,13.7170762 L15.6346431,10.592874 L12.0996094,10.592874 L12.0996094,8.88501135 C12.0996094,7.58658256 12.5199165,6.4341522 13.7274165,6.4341522 L15.6654054,6.4341522 L15.6654054,3.70724801 C15.3241554,3.66101705 14.6039827,3.56019645 13.2429202,3.56019645 C10.4000452,3.56019645 8.73376481,5.07128829 8.73376481,8.51351259 L8.73376481,10.592874 L5.8114014,10.592874 L5.8114014,13.7170762 L8.73376481,13.7170762 L8.73376481,20.9742005 C3.76725628,20.1313956 0,15.8113003 0,10.5670758 C0,4.71539565 4.68546409,0 10.5,0 Z" id="Shape"></path>
                        </g>
                    </g>
                </g>
            </g>
        </g>
    </g>
</svg>