<?xml version="1.0" encoding="UTF-8"?>
<svg width="37px" height="37px" viewBox="0 0 37 37" version="1.1" xmlns="http://www.w3.org/2000/svg" xmlns:xlink="http://www.w3.org/1999/xlink">
    <!-- Generator: Sketch 52.5 (67469) - http://www.bohemiancoding.com/sketch -->
    <title>Group 18</title>
    <desc>Created with Sketch.</desc>
    <g id="Page-1" stroke="none" stroke-width="1" fill="none" fill-rule="evenodd">
        <g id="Digital-Marketing-home-page" transform="translate(-806.000000, -2584.000000)">
            <g id="Group-12" transform="translate(0.000000, 2385.000000)">
                <g id="Group-11" transform="translate(200.000000, 100.000000)">
                    <g id="Group-18" transform="translate(607.000000, 100.000000)">
                        <circle id="Oval-Copy-2" stroke="#FFFFFF" cx="17.5" cy="17.5" r="17.5"></circle>
                        <g id="Insta" transform="translate(7.000000, 7.000000)" fill="#FFFFFF" fill-rule="nonzero">
                            <g id="icons8-instagram">
                                <path d="M5.83333333,0 C2.61683333,0 0,2.61683333 0,5.83333333 L0,15.1666667 C0,18.3831667 2.61683333,21 5.83333333,21 L15.1666667,21 C18.3831667,21 21,18.3831667 21,15.1666667 L21,5.83333333 C21,2.61683333 18.3831667,0 15.1666667,0 L5.83333333,0 Z M5.83333333,2.33333333 L15.1666667,2.33333333 C17.0963333,2.33333333 18.6666667,3.90366667 18.6666667,5.83333333 L18.6666667,15.1666667 C18.6666667,17.0963333 17.0963333,18.6666667 15.1666667,18.6666667 L5.83333333,18.6666667 C3.90366667,18.6666667 2.33333333,17.0963333 2.33333333,15.1666667 L2.33333333,5.83333333 C2.33333333,3.90366667 3.90366667,2.33333333 5.83333333,2.33333333 Z M16.3333333,3.5 C15.6890011,3.5 15.1666667,4.02233446 15.1666667,4.66666667 C15.1666667,5.31099887 15.6890011,5.83333333 16.3333333,5.83333333 C16.9776655,5.83333333 17.5,5.31099887 17.5,4.66666667 C17.5,4.02233446 16.9776655,3.5 16.3333333,3.5 Z M10.5,4.66666667 C7.2835,4.66666667 4.66666667,7.2835 4.66666667,10.5 C4.66666667,13.7165 7.2835,16.3333333 10.5,16.3333333 C13.7165,16.3333333 16.3333333,13.7165 16.3333333,10.5 C16.3333333,7.2835 13.7165,4.66666667 10.5,4.66666667 Z M10.5,7 C12.4296667,7 14,8.57033333 14,10.5 C14,12.4296667 12.4296667,14 10.5,14 C8.57033333,14 7,12.4296667 7,10.5 C7,8.57033333 8.57033333,7 10.5,7 Z" id="Shape"></path>
                            </g>
                        </g>
                    </g>
                </g>
            </g>
        </g>
    </g>
</svg>