<?xml version="1.0" encoding="UTF-8"?>
<svg width="50px" height="50px" viewBox="0 0 50 50" version="1.1" xmlns="http://www.w3.org/2000/svg" xmlns:xlink="http://www.w3.org/1999/xlink">
    <!-- Generator: Sketch 52.5 (67469) - http://www.bohemiancoding.com/sketch -->
    <title>settings</title>
    <desc>Created with Sketch.</desc>
    <g id="Page-1" stroke="none" stroke-width="1" fill="none" fill-rule="evenodd">
        <g id="Digital-Marketing-home-page" transform="translate(-732.000000, -1939.000000)" fill="#FFFFFF" fill-rule="nonzero">
            <g id="Group-20" transform="translate(200.000000, 1838.000000)">
                <g id="Group-10-Copy-2" transform="translate(450.000000, 51.000000)">
                    <g id="Group-5">
                        <g id="settings" transform="translate(82.000000, 50.000000)">
                            <path d="M25.5044768,32.8542314 C25.5905586,32.6243794 25.6866714,32.398657 25.7898467,32.1744456 C25.2744818,31.4406718 24.9976074,30.5717264 24.9976074,29.6612829 C24.9976074,28.4751579 25.468345,27.3607484 26.3162662,26.5284665 C27.1679747,25.6879254 28.3012659,25.2257033 29.5075373,25.2257033 C30.4320212,25.2257033 31.3134131,25.49796 32.0588755,26.0034934 C32.2873352,25.9032731 32.516409,25.8092977 32.7512148,25.7229773 C33.1390436,23.6621657 34.9779806,22.0963116 37.1835585,22.0963116 C37.6920656,22.0963116 38.1791802,22.1876682 38.636202,22.3416751 C39.45966,21.7327989 40,20.7723963 40,19.6809518 C40,17.8368981 38.4805177,16.3419536 36.6069843,16.3419536 L34.5408159,16.3419536 C34.1646558,14.7548467 33.5286125,13.2704782 32.6785417,11.9270224 L34.143468,10.4865695 C35.4685753,9.18310118 35.4685753,7.06840233 34.143468,5.76493398 C32.8178489,4.4608613 30.6675435,4.4608613 29.3449952,5.76493398 L27.8807854,7.20538687 C26.5152473,6.36816958 25.0063077,5.74237182 23.3942952,5.37291646 L23.3942952,3.33899819 C23.3942952,1.49494453 21.8731752,0 20.0007677,0 C18.1258013,0 16.6076496,1.49504525 16.6076496,3.33899819 L16.6076496,5.37271501 C14.9939994,5.74217038 13.484548,6.36806886 12.119624,7.20518542 L10.6568473,5.76563905 C9.33276355,4.46146564 7.1825605,4.46146564 5.85847678,5.76563905 C4.53285772,7.06920812 4.53285772,9.18380625 5.85847678,10.4871739 L7.32125356,11.926821 C6.47169459,13.2702767 5.83503714,14.7546452 5.46112884,16.3417521 L3.3930157,16.3417521 C1.5189705,16.3417521 0,17.8367974 0,19.6807503 C0,21.5247033 1.51907285,23.0197485 3.3930157,23.0197485 L5.46092413,23.0197485 C5.83483243,24.6070569 6.47148988,26.0921305 7.32319833,27.4355862 L5.85816971,28.8760391 C4.53255065,30.1795075 4.53255065,32.2941056 5.85816971,33.5976747 C6.52082571,34.2498621 7.38891121,34.5759054 8.25720142,34.5759054 C9.12528692,34.5759054 9.99347477,34.2498621 10.6565402,33.5976747 L12.1209547,32.1572218 C13.4858786,32.9936333 14.9936923,33.6196325 16.6073425,33.9889871 L16.6073425,36.0227039 C16.6073425,37.8666569 18.1253918,39.3617021 20.0004606,39.3617021 C20.7825666,39.3617021 21.4950703,39.0902511 22.068369,38.6515984 C21.9126848,38.2000531 21.8181074,37.719197 21.8181074,37.2161818 C21.8181074,35.0469913 23.4088298,33.2357736 25.5044768,32.8542314 Z M20.0004606,26.3628764 C16.2498113,26.3628764 13.2081854,23.3711743 13.2081854,19.6808511 C13.2081854,15.9904271 16.2499136,12.9988257 20.0004606,12.9988257 C23.749984,12.9988257 26.7901768,15.9904271 26.7901768,19.6808511 C26.7901768,23.3711743 23.749984,26.3628764 20.0004606,26.3628764 Z" id="Shape"></path>
                            <path d="M48.2371269,35.4337285 L46.9917277,35.4337285 C46.7426074,34.049118 46.2134924,32.7655129 45.46107,31.6492851 L46.3397228,30.7532634 C47.0275622,30.0503614 47.0275622,28.9100453 46.3397228,28.2071433 C45.99555,27.8550203 45.5431653,27.679269 45.0928052,27.679269 C44.6420401,27.679269 44.1900603,27.8550203 43.8458875,28.2071433 L42.967336,29.1041988 C41.8765108,28.3344079 40.6180533,27.7947479 39.2613041,27.5386679 L39.2613041,26.2677789 C39.2613041,25.27375 38.4731485,24.4680851 37.5000506,24.4680851 C36.5269528,24.4680851 35.7387972,25.27375 35.7387972,26.2677789 L35.7387972,27.5386679 C34.3820479,27.7948513 33.12521,28.3344079 32.0321579,29.1034752 L31.1542137,28.2082805 C30.8100409,27.8567778 30.3590734,27.6801994 29.9088145,27.6801994 C29.4562273,27.6801994 29.00445,27.8567778 28.6618968,28.2082805 C27.9720329,28.9101487 27.9720329,30.0504648 28.6618968,30.7533668 L29.5383226,31.6493885 C28.7864064,32.7657197 28.2572914,34.0492214 28.0082723,35.4338319 L26.7628731,35.4338319 C25.7897752,35.4338319 25,36.2396001 25,37.233629 C25,38.228485 25.7897752,39.0342532 26.7628731,39.0342532 L28.0082723,39.0342532 C28.2572914,40.4188637 28.7865076,41.7016418 29.5399423,42.8184899 L28.6618968,43.7155454 C27.9720329,44.4182406 27.9720329,45.5579364 28.6618968,46.2606317 C29.0060696,46.6121344 29.4563285,46.7886094 29.9088145,46.7886094 C30.3589722,46.7886094 30.8099397,46.6121344 31.1542137,46.2606317 L32.0321579,45.3647133 C33.12521,46.1326433 34.3820479,46.6724067 35.7387972,46.9283834 L35.7387972,48.1993758 C35.7387972,49.1941284 36.5269528,50 37.5000506,50 C38.4731485,50 39.2613041,49.1941284 39.2613041,48.1993758 L39.2613041,46.9292105 C40.6180533,46.6725101 41.8744863,46.1326433 42.967336,45.3637829 L43.8458875,46.2614587 C44.1900603,46.6129614 44.6420401,46.7887128 45.0928052,46.7887128 C45.5431653,46.7887128 45.99555,46.6130648 46.3397228,46.2614587 C47.0275622,45.5587635 47.0275622,44.4182406 46.3397228,43.7155454 L45.46107,42.8184899 C46.2135936,41.7015384 46.7426074,40.4188637 46.9917277,39.0342532 L48.2371269,39.0342532 C49.2102248,39.0342532 50,38.228485 50,37.233629 C50,36.2394967 49.2102248,35.4337285 48.2371269,35.4337285 Z M37.4998482,40.9501497 C35.4894744,40.9501497 33.8606262,39.2860946 33.8606262,37.233629 C33.8606262,35.1810601 35.4894744,33.5169016 37.4998482,33.5169016 C39.5102219,33.5169016 41.1385639,35.1811635 41.1385639,37.233629 C41.1386652,39.2860946 39.5103232,40.9501497 37.4998482,40.9501497 Z" id="Shape"></path>
                        </g>
                    </g>
                </g>
            </g>
        </g>
    </g>
</svg>