<?xml version="1.0" encoding="UTF-8"?>
<svg width="50px" height="50px" viewBox="0 0 50 50" version="1.1" xmlns="http://www.w3.org/2000/svg" xmlns:xlink="http://www.w3.org/1999/xlink">
    <!-- Generator: Sketch 52.5 (67469) - http://www.bohemiancoding.com/sketch -->
    <title>stocks-graphic-with-a-magnifier-tool</title>
    <desc>Created with Sketch.</desc>
    <g id="Page-1" stroke="none" stroke-width="1" fill="none" fill-rule="evenodd">
        <g id="Digital-Marketing-home-page" transform="translate(-508.000000, -1939.000000)" fill="#FFFFFF" fill-rule="nonzero">
            <g id="Group-20" transform="translate(200.000000, 1838.000000)">
                <g id="Group-10-Copy" transform="translate(225.000000, 51.000000)">
                    <g id="Group-5">
                        <g id="stocks-graphic-with-a-magnifier-tool" transform="translate(83.000000, 50.000000)">
                            <path d="M16.731875,30.7636364 C16.861875,31.388961 17.02125,31.9876623 17.226875,32.5792208 L0,32.5792208 L0,0.474675325 L1.74625,0.474675325 L1.74625,30.7636364 L16.731875,30.7636364 Z M23.60625,15.7422078 L25.981875,9.87792208 L28.525,10.9909091 L27.566875,3.04090909 L21.42125,7.88116883 L23.94375,8.98441558 L21.173125,15.8285714 L17.371875,11.2623377 L13.404375,19.1 L9.425,15.0954545 L4.88125,25.8162338 L6.901875,26.738961 L10.16625,19.0409091 L13.985,22.8792208 L17.818125,15.3123377 L20.275,18.262987 C21.253125,17.2467532 22.373125,16.388961 23.60625,15.7422078 Z M49.444375,44.8590909 L41.53875,35.8136364 C41.224375,35.4603896 40.755,35.45 40.356875,35.638961 C39.308125,37.2253247 37.951875,38.5441558 36.395625,39.5324675 C36.32125,39.8688312 36.34375,40.2149351 36.58,40.4837662 L44.48375,49.5220779 C44.865,49.9590909 45.515625,49.9935065 45.943125,49.5922078 L49.37375,46.3642857 C49.794375,45.9753247 49.82375,45.2961039 49.444375,44.8590909 Z M40.9525,27.9123377 C40.9525,29.2038961 40.745,30.5084416 40.32125,31.7928571 C38.263125,37.9727273 31.77375,41.2409091 25.82875,39.1025974 C21.11,37.4077922 18.156875,32.8285714 18.156875,27.9155844 C18.156875,26.6324675 18.355625,25.3298701 18.783125,24.0422078 C20.84125,17.8655844 27.33,14.5922078 33.27875,16.7305195 C37.99125,18.4201299 40.9525,23.0064935 40.9525,27.9123377 Z M37.85875,27.9123377 C37.85875,24.2422078 35.6125,20.9623377 32.26625,19.7603896 C30.169375,19.0090909 27.92,19.15 25.91875,20.1551948 C23.93125,21.1603896 22.42625,22.9175325 21.70625,25.0928571 C21.39875,26.012987 21.246875,26.9623377 21.246875,27.9155844 C21.246875,31.5909091 23.4925,34.875974 26.8425,36.0694805 C28.93375,36.8292208 31.18875,36.6883117 33.1925,35.6792208 C35.185625,34.6772727 36.68125,32.9188312 37.405625,30.7402597 C37.706875,29.8220779 37.85875,28.874026 37.85875,27.9123377 Z" id="Shape"></path>
                        </g>
                    </g>
                </g>
            </g>
        </g>
    </g>
</svg>