<?xml version="1.0" encoding="UTF-8"?>
<svg width="24px" height="24px" viewBox="0 0 24 24" version="1.1" xmlns="http://www.w3.org/2000/svg" xmlns:xlink="http://www.w3.org/1999/xlink">
    <!-- Generator: Sketch 52.5 (67469) - http://www.bohemiancoding.com/sketch -->
    <title>optimization</title>
    <desc>Created with Sketch.</desc>
    <g id="Page-1" stroke="none" stroke-width="1" fill="none" fill-rule="evenodd">
        <g id="Digital-Marketing-home-page" transform="translate(-220.000000, -1243.000000)" fill="#000000">
            <g id="Group-15" transform="translate(0.000000, 556.000000)">
                <g id="Group-14">
                    <g id="Services" transform="translate(200.000000, 387.000000)">
                        <g id="Group-8-Copy-3" transform="translate(0.000000, 280.000000)">
                            <g id="optimization" transform="translate(20.000000, 20.000000)">
                                <polygon id="Path" points="8 1 23 1 23 2 8 2"></polygon>
                                <polygon id="Path" points="1 1 2 1 2 2 1 2"></polygon>
                                <polygon id="Path" points="3 1 4 1 4 2 3 2"></polygon>
                                <polygon id="Path" points="4 1 5 1 5 2 4 2"></polygon>
                                <path d="M0,0 L0,19.5 L9.1706543,19.5 L10.1887207,21.6000366 C10.3983765,22.0281372 10.7871094,22.3410645 11.25,22.4545898 L11.25,24 L12,24 L12,22.5 L13.3125,22.5 L13.3125,21.75 L11.625,21.75 C11.3010864,21.7487182 11.0061035,21.5637818 10.8638306,21.2730103 L9.02618409,17.4829102 C8.89746094,17.2532959 8.97308348,16.9628906 9.19757081,16.8251953 C9.42205809,16.6876831 9.71520994,16.7519531 9.86132812,16.9709473 L10.9125366,18.5625 L11.625,18.5625 L11.625,12.375 C11.625,12.1679077 11.7929077,12 12,12 C12.2070923,12 12.375,12.1679077 12.375,12.375 L12.375,16.6875 L13.125,16.6875 L13.125,15.1875 L13.5,15.1875 C13.7070923,15.1875 13.875,15.3554077 13.875,15.5625 L13.875,17.4375 L14.625,17.4375 L14.625,15.9375 L15,15.9375 C15.2070923,15.9375 15.375,16.1054077 15.375,16.3125 L15.375,18.1875 L16.125,18.1875 L16.125,16.6875 L16.5,16.6875 C16.7070923,16.6875 16.875,16.8554077 16.875,17.0625 L16.875,20.53656 L16.125,22.03656 L16.125,24 L16.875,24 L16.875,22.21344 L17.625,20.71344 L17.625,19.5 L24,19.5 L24,0 L0,0 Z M0.75,3.75 L8.625,3.75 L8.625,5.40527344 L10.875,7.65527344 L10.875,8.84582522 C10.619751,8.95001222 10.3798828,9.08880614 10.1625366,9.25836183 L8.78027344,7.875 L6.15527344,7.875 L5.03741456,6.75714113 C5.17529297,6.5286255 5.24871825,6.26696775 5.25,6 C5.25,5.17163086 4.57836914,4.5 3.75,4.5 C2.92163086,4.5 2.25,5.17163086 2.25,6 C2.25,6.82836914 2.92163086,7.5 3.75,7.5 C4.01696775,7.49871825 4.2786255,7.42529297 4.50714113,7.28741456 L5.84472656,8.625 L8.46972656,8.625 L9.63226317,9.78753661 C9.46270753,10.0048828 9.32391356,10.244751 9.21972656,10.5 L5.78027344,10.5 L4.28027344,9 L0.75,9 L0.75,3.75 Z M9.375,5.09472656 L9.375,3.75 L10.125,3.75 L10.125,5.84472656 L9.375,5.09472656 Z M4.5,6 C4.5,6.41418459 4.16418459,6.75 3.75,6.75 C3.33581541,6.75 3,6.41418459 3,6 C3,5.58581541 3.33581541,5.25 3.75,5.25 C4.16418459,5.25 4.5,5.58581541 4.5,6 Z M0.75,9.75 L3.96972656,9.75 L5.46972656,11.25 L9.02581786,11.25 C9.00952148,11.3743286 9.00073242,11.4995728 9,11.625 C9.00292969,12.0115357 9.08166506,12.3938599 9.2318115,12.75 L5.03173828,12.75 L3.53173828,11.25 L0.75,11.25 L0.75,9.75 Z M10.875,17.1469116 L10.4853516,16.557312 C10.1390991,16.0349121 9.45776367,15.8525391 8.89691161,16.1325073 C8.59185792,16.2833862 8.36315916,16.5540161 8.26538086,16.8799439 C8.16577148,17.1968994 8.20092773,17.5409546 8.36242678,17.8311768 L8.80682372,18.75 L0.75,18.75 L0.75,12 L3.21972656,12 L4.71972656,13.5 L9.67199709,13.5 C9.77160647,13.6237793 9.88092042,13.739502 9.99865725,13.8460693 L9.59472656,14.25 L4.71972656,14.25 L3.75714113,15.2125854 C3.5286255,15.074707 3.26696775,15.0012818 3,15 C2.17163086,15 1.5,15.6716309 1.5,16.5 C1.5,17.3283691 2.17163086,18 3,18 C3.82836914,18 4.5,17.3283691 4.5,16.5 C4.49871825,16.2330323 4.42529297,15.9713745 4.28741456,15.7428589 L5.03027344,15 L9.90527344,15 L10.6223145,14.2833252 C10.7036133,14.3258057 10.7891235,14.3583984 10.875,14.395935 L10.875,17.1469116 Z M3.75,16.5 C3.75,16.9141846 3.41418459,17.25 3,17.25 C2.58581541,17.25 2.25,16.9141846 2.25,16.5 C2.25,16.0858154 2.58581541,15.75 3,15.75 C3.41418459,15.75 3.75,16.0858154 3.75,16.5 Z M12,11.25 C11.3787232,11.25 10.875,11.7537232 10.875,12.375 L10.875,13.5644531 C9.99298097,13.0552368 9.56304933,12.0172119 9.8267212,11.0335693 C10.0902099,10.0499268 10.9815674,9.36602784 12,9.36602784 C13.0184326,9.36602784 13.9097901,10.0499268 14.1732788,11.0335693 C14.4369507,12.0172119 14.007019,13.0552368 13.125,13.5644531 L13.125,12.375 C13.125,11.7537232 12.6212768,11.25 12,11.25 Z M23.25,18.75 L17.625,18.75 L17.625,17.0625 C17.625,16.4412232 17.1212768,15.9375 16.5,15.9375 L16.0609131,15.9375 C15.9014282,15.4883423 15.4766235,15.1880493 15,15.1875 L14.5609131,15.1875 C14.4014282,14.7383423 13.9766235,14.4380493 13.5,14.4375 L13.125,14.4375 L13.125,14.3955689 C13.2306518,14.3529053 13.3337402,14.3043823 13.434082,14.25 L16.7433472,14.25 L18.6183472,15.75 L23.25,15.75 L23.25,18.75 Z M23.25,15 L18.8816528,15 L17.0066528,13.5 L14.3280029,13.5 C14.5349121,13.2440185 14.6984253,12.9559936 14.8125,12.6472778 L14.8125,12.75 L19.5532837,12.75 C19.7420654,13.4813232 20.4453735,13.958313 21.1946411,13.8630982 C21.9439087,13.7678833 22.5056763,13.13031 22.5056763,12.375 C22.5056763,11.61969 21.9439087,10.9821167 21.1946411,10.8869018 C20.4453735,10.791687 19.7420654,11.2686768 19.5532837,12 L18.0651855,12 L19.6724854,10.125 L23.25,10.125 L23.25,15 Z M20.25,12.375 C20.25,11.9608154 20.5858154,11.625 21,11.625 C21.4141846,11.625 21.75,11.9608154 21.75,12.375 C21.75,12.7891846 21.4141846,13.125 21,13.125 C20.5858154,13.125 20.25,12.7891846 20.25,12.375 Z M23.25,9.375 L19.3275146,9.375 L17.0775146,12 L14.9688721,12 C14.9873657,11.8758545 14.9978027,11.7506104 15,11.625 C14.9998169,11.0978393 14.8599243,10.5802002 14.5942383,10.125 L16.2817383,10.125 L18.9067383,7.5 L19.5547485,7.5 C19.7435303,8.23132322 20.4468384,8.708313 21.196106,8.61309816 C21.9453735,8.51788331 22.5071411,7.88031005 22.5071411,7.125 C22.5071411,6.36968995 21.9453735,5.73211669 21.196106,5.63690184 C20.4468384,5.541687 19.7435303,6.01867678 19.5547485,6.75 L18.5947266,6.75 L15.9697266,9.375 L13.9777222,9.375 C13.6563721,9.09100341 13.2778931,8.87933348 12.8677368,8.75408934 L13.7598267,6.375 L14.6782837,6.375 C14.8670654,7.10632322 15.5703735,7.583313 16.3196411,7.48809816 C17.0689087,7.39288331 17.6306763,6.75531005 17.6306763,6 C17.6306763,5.24468995 17.0689087,4.60711669 16.3196411,4.51190184 C15.5703735,4.416687 14.8670654,4.89367678 14.6782837,5.625 L13.2401733,5.625 L12.1124268,8.63067628 C12.0750732,8.63067628 12.0375366,8.625 12,8.625 C11.8745728,8.62573242 11.7493286,8.63452148 11.625,8.65081786 L11.625,7.34472656 L10.875,6.59472656 L10.875,3.75 L23.25,3.75 L23.25,9.375 Z M20.25,7.125 C20.25,6.71081541 20.5858154,6.375 21,6.375 C21.4141846,6.375 21.75,6.71081541 21.75,7.125 C21.75,7.53918459 21.4141846,7.875 21,7.875 C20.5858154,7.875 20.25,7.53918459 20.25,7.125 Z M15.375,6 C15.375,5.58581541 15.7108154,5.25 16.125,5.25 C16.5391846,5.25 16.875,5.58581541 16.875,6 C16.875,6.41418459 16.5391846,6.75 16.125,6.75 C15.7108154,6.75 15.375,6.41418459 15.375,6 Z M23.25,3 L0.75,3 L0.75,0.75 L23.25,0.75 L23.25,3 Z" id="Shape" fill-rule="nonzero"></path>
                            </g>
                        </g>
                    </g>
                </g>
            </g>
        </g>
    </g>
</svg>