<?xml version="1.0" encoding="UTF-8"?>
<svg width="24px" height="24px" viewBox="0 0 24 24" version="1.1" xmlns="http://www.w3.org/2000/svg" xmlns:xlink="http://www.w3.org/1999/xlink">
    <!-- Generator: Sketch 52.5 (67469) - http://www.bohemiancoding.com/sketch -->
    <title>graph-line-screen</title>
    <desc>Created with Sketch.</desc>
    <g id="Page-1" stroke="none" stroke-width="1" fill="none" fill-rule="evenodd">
        <g id="Digital-Marketing-home-page" transform="translate(-820.000000, -963.000000)" fill="#010002">
            <g id="Group-15" transform="translate(0.000000, 556.000000)">
                <g id="Group-14">
                    <g id="Services" transform="translate(200.000000, 387.000000)">
                        <g id="Group-8-Copy-2" transform="translate(600.000000, 0.000000)">
                            <g id="graph-line-screen" transform="translate(20.000000, 20.000000)">
                                <path d="M22.5245487,0.0228874172 L1.46046918,0.0228874172 C0.656636183,0.0228874172 0,0.753165563 0,1.64339073 L0,18.4600265 C0,19.3491391 0.656636183,20.0805298 1.46046918,20.0805298 L22.5245487,20.0805298 C23.327332,20.0805298 23.9839682,19.3491391 23.9839682,18.4600265 L23.9839682,1.64339073 C23.9839682,0.753165563 23.327332,0.0228874172 22.5245487,0.0228874172 Z M22.1571054,17.2680795 L1.82686282,17.2680795 L1.82686282,2.29594702 L22.1571054,2.29594702 L22.1571054,17.2680795 Z" id="Shape" fill-rule="nonzero"></path>
                                <polygon id="Path" points="9.28976541 20.8496954 6.53348708 23.9593113 17.4906083 23.9593113 14.73433 20.8496954"></polygon>
                                <path d="M4.93102187,14.2659073 C5.46932803,14.2659073 5.90776938,13.7801854 5.90776938,13.1825166 C5.90776938,13.0739603 5.8789503,12.9756821 5.8521829,12.8762384 C7.10061233,11.7585695 9.30627435,9.78834437 10.3117932,8.92778808 C10.4702982,9.05234437 10.6545209,9.14150993 10.8634592,9.14150993 C11.0373757,9.14150993 11.1917773,9.07750993 11.3327714,8.98950993 C11.9791014,9.59978808 13.07833,10.637457 13.858497,11.3745695 C13.8481909,11.437404 13.8255746,11.493404 13.8255746,11.5596821 C13.8255746,12.1585166 14.2640159,12.6442384 14.8033241,12.6442384 C15.3426322,12.6442384 15.7810736,12.1585166 15.7810736,11.5596821 C15.7810736,11.453404 15.7522545,11.3562384 15.7265368,11.2591258 L18.2522624,8.72662252 C18.3881034,8.80545695 18.5342505,8.86145695 18.6989583,8.86145695 C19.2382664,8.86145695 19.6757058,8.3757351 19.6757058,7.77690066 C19.6757058,7.17806623 19.2382664,6.69234437 18.6989583,6.69234437 C18.1596501,6.69234437 17.7232604,7.17806623 17.7232604,7.77801325 C17.7232604,7.92084768 17.7510298,8.05684768 17.7963101,8.18140397 C17.0902425,8.8887947 16.0013678,9.98135099 15.3220676,10.6624636 C15.1707674,10.5539073 14.9999046,10.4739073 14.8043738,10.4739073 C14.5738211,10.4739073 14.3720875,10.5756291 14.2053757,10.7230199 C13.5600477,10.1139073 12.5164056,9.1287947 11.7743618,8.42823841 C11.8134871,8.31168212 11.8412565,8.18940397 11.8412565,8.05684768 C11.8412565,7.45801325 11.4038171,6.97229139 10.8645089,6.97229139 C10.3252008,6.97229139 9.88776143,7.45801325 9.88776143,8.05684768 C9.88776143,8.18940397 9.91658052,8.31284768 9.95570577,8.42940397 L5.47242942,12.3024106 C5.31597614,12.1835762 5.13585686,12.0966887 4.93207157,12.0966887 C4.39276342,12.0966887 3.95532406,12.5824106 3.95532406,13.181245 C3.95427435,13.7801854 4.39171372,14.2659073 4.93102187,14.2659073 Z" id="Path"></path>
                            </g>
                        </g>
                    </g>
                </g>
            </g>
        </g>
    </g>
</svg>