<?xml version="1.0" encoding="UTF-8"?>
<svg width="50px" height="50px" viewBox="0 0 50 50" version="1.1" xmlns="http://www.w3.org/2000/svg" xmlns:xlink="http://www.w3.org/1999/xlink">
    <!-- Generator: Sketch 52.5 (67469) - http://www.bohemiancoding.com/sketch -->
    <title>plan-idea</title>
    <desc>Created with Sketch.</desc>
    <g id="Page-1" stroke="none" stroke-width="1" fill="none" fill-rule="evenodd">
        <g id="Digital-Marketing-home-page" transform="translate(-282.000000, -1939.000000)" fill="#FFFFFF">
            <g id="Group-20" transform="translate(200.000000, 1838.000000)">
                <g id="Group-10" transform="translate(0.000000, 51.000000)">
                    <g id="Group-5">
                        <g id="plan-idea" transform="translate(82.000000, 50.000000)">
                            <path d="M18.9335689,21.4672297 C14.8448763,21.4672297 11.5185512,24.652027 11.5185512,28.5663851 C11.5185512,31.1765203 13.670318,33.2959459 13.915371,33.5288851 C14.3190813,33.9125 14.8512367,34.7619932 15.0238516,35.2951014 L15.6160777,37.6165541 C15.7606007,38.1839527 16.2924028,38.5834459 16.9033569,38.5834459 L20.9632509,38.5834459 C21.5740283,38.5834459 22.1058304,38.1842905 22.25053,37.6168919 L22.8432862,35.2945946 C23.0151943,34.7630068 23.5471731,33.9131757 23.9514134,33.5288851 C24.1966431,33.2959459 26.3478799,31.1763514 26.3478799,28.5663851 C26.3482332,24.6518581 23.0220848,21.4672297 18.9335689,21.4672297 Z M22.0830389,31.7322635 C21.3526502,32.4266892 20.5832155,33.6616554 20.2931095,34.6045608 C20.2872792,34.6234797 20.2819788,34.6425676 20.2770318,34.6616554 L19.9226148,36.0498311 L17.9443463,36.0498311 L17.5902827,34.6619932 C17.5855124,34.6423986 17.5798587,34.622973 17.5738516,34.6035473 C17.2825088,33.6596284 16.5130742,32.4251689 15.7865724,31.7347973 C15.3365724,31.3015203 14.1687279,29.8878378 14.1687279,28.5665541 C14.1687279,26.0491554 16.3061837,24.0011824 18.9335689,24.0011824 C21.5606007,24.0011824 23.6980565,26.0491554 23.6980565,28.5665541 C23.6980565,29.8876689 22.530212,31.3015203 22.0830389,31.7322635 Z" id="Shape" fill-rule="nonzero"></path>
                            <path d="M36.4245583,0 L1.44222615,0 C0.71024735,0 0.117137809,0.567060811 0.117137809,1.26689189 L0.117137809,48.6486486 C0.117137809,49.3484797 0.71024735,49.9155405 1.44222615,49.9155405 L36.4245583,49.9155405 C37.1565371,49.9155405 37.7496466,49.3484797 37.7496466,48.6486486 L37.7496466,1.26689189 C37.7496466,0.567060811 37.1565371,0 36.4245583,0 Z M35.09947,47.3817568 L2.76731449,47.3817568 L2.76731449,2.53378378 L35.09947,2.53378378 L35.09947,47.3817568 Z" id="Shape" fill-rule="nonzero"></path>
                            <path d="M7.27261484,14.8226351 L30.5941696,14.8226351 C31.3261484,14.8226351 31.919258,14.2555743 31.919258,13.5557432 L31.919258,6.84121622 C31.919258,6.14138514 31.3261484,5.57432432 30.5941696,5.57432432 L7.27261484,5.57432432 C6.54063604,5.57432432 5.9475265,6.14138514 5.9475265,6.84121622 L5.9475265,13.5557432 C5.9475265,14.2555743 6.54081272,14.8226351 7.27261484,14.8226351 Z M8.59770318,8.10810811 L29.2690813,8.10810811 L29.2690813,12.2888514 L8.59770318,12.2888514 L8.59770318,8.10810811 Z" id="Shape" fill-rule="nonzero"></path>
                            <path d="M20.3909894,39.7381757 L17.4757951,39.7381757 C16.7438163,39.7381757 16.1507067,40.3052365 16.1507067,41.0050676 C16.1507067,41.7048986 16.7438163,42.2719595 17.4757951,42.2719595 L20.3909894,42.2719595 C21.1229682,42.2719595 21.7160777,41.7048986 21.7160777,41.0050676 C21.7160777,40.3052365 21.1229682,39.7381757 20.3909894,39.7381757 Z" id="Path"></path>
                            <path d="M18.9800353,43.0320946 L18.8869258,43.0320946 C18.154947,43.0320946 17.5618375,43.5991554 17.5618375,44.2989865 C17.5618375,44.9988176 18.154947,45.5658784 18.8869258,45.5658784 L18.9800353,45.5658784 C19.7120141,45.5658784 20.3051237,44.9988176 20.3051237,44.2989865 C20.3051237,43.5991554 19.7118375,43.0320946 18.9800353,43.0320946 Z" id="Path"></path>
                            <path d="M18.9800353,19.9746622 C19.7120141,19.9746622 20.3051237,19.4076014 20.3051237,18.7077703 C20.3051237,18.0079392 19.7120141,17.4408784 18.9800353,17.4408784 L18.8869258,17.4408784 C18.154947,17.4408784 17.5618375,18.0079392 17.5618375,18.7077703 C17.5618375,19.4076014 18.154947,19.9746622 18.8869258,19.9746622 L18.9800353,19.9746622 Z" id="Path"></path>
                            <path d="M12.3545936,20.9037162 C12.3545936,20.2038851 11.7614841,19.6368243 11.0295053,19.6368243 L10.9363958,19.6368243 C10.204417,19.6368243 9.61130742,20.2038851 9.61130742,20.9037162 C9.61130742,21.6035473 10.2045936,22.1706081 10.9363958,22.1706081 L11.0295053,22.1706081 C11.7613074,22.1706081 12.3545936,21.6035473 12.3545936,20.9037162 Z" id="Path"></path>
                            <path d="M26.9305654,19.6368243 L26.8374558,19.6368243 C26.105477,19.6368243 25.5123675,20.2038851 25.5123675,20.9037162 C25.5123675,21.6035473 26.105477,22.1706081 26.8374558,22.1706081 L26.9305654,22.1706081 C27.6625442,22.1706081 28.2556537,21.6035473 28.2556537,20.9037162 C28.2556537,20.2038851 27.6623675,19.6368243 26.9305654,19.6368243 Z" id="Path"></path>
                            <path d="M29.9340989,25.8023649 L29.8409894,25.8023649 C29.1090106,25.8023649 28.5159011,26.3694257 28.5159011,27.0692568 C28.5159011,27.7690878 29.1090106,28.3361486 29.8409894,28.3361486 L29.9340989,28.3361486 C30.6660777,28.3361486 31.2591873,27.7690878 31.2591873,27.0692568 C31.2591873,26.3694257 30.6659011,25.8023649 29.9340989,25.8023649 Z" id="Path"></path>
                            <path d="M8.55600707,25.8023649 L8.46289753,25.8023649 C7.73109541,25.8023649 7.13780919,26.3694257 7.13780919,27.0692568 C7.13780919,27.7690878 7.73109541,28.3361486 8.46289753,28.3361486 L8.55600707,28.3361486 C9.28798587,28.3361486 9.88109541,27.7690878 9.88109541,27.0692568 C9.88109541,26.3694257 9.28780919,25.8023649 8.55600707,25.8023649 Z" id="Path"></path>
                            <path d="M40.9300353,38.0814189 C40.9300353,38.2780405 40.9779152,38.4721284 41.0699647,38.6481419 L44.265371,44.7584459 C44.4899293,45.1875 44.9485866,45.4587838 45.45053,45.4587838 C45.9524735,45.4587838 46.4113074,45.1876689 46.635689,44.7584459 L49.8312721,38.6481419 C49.9233216,38.4721284 49.9712014,38.2780405 49.9712014,38.0814189 L49.9712014,8.06587838 C49.9712014,7.3660473 49.3780919,6.79898649 48.6461131,6.79898649 L42.2551237,6.79898649 C41.5231449,6.79898649 40.9300353,7.3660473 40.9300353,8.06587838 L40.9300353,38.0814189 Z M43.580212,36.814527 L43.580212,13.40625 L47.3210247,13.40625 L47.3210247,36.814527 L43.580212,36.814527 Z M47.3210247,9.33277027 L47.3210247,10.8724662 L43.580212,10.8724662 L43.580212,9.33277027 L47.3210247,9.33277027 Z M45.45053,41.3589527 L44.3991166,39.3484797 L46.5019435,39.3484797 L45.45053,41.3589527 Z" id="Shape" fill-rule="nonzero"></path>
                        </g>
                    </g>
                </g>
            </g>
        </g>
    </g>
</svg>