<?xml version="1.0" encoding="UTF-8"?>
<svg width="37px" height="37px" viewBox="0 0 37 37" version="1.1" xmlns="http://www.w3.org/2000/svg" xmlns:xlink="http://www.w3.org/1999/xlink">
    <!-- Generator: Sketch 52.5 (67469) - http://www.bohemiancoding.com/sketch -->
    <title>Group 17</title>
    <desc>Created with Sketch.</desc>
    <g id="Page-1" stroke="none" stroke-width="1" fill="none" fill-rule="evenodd">
        <g id="Digital-Marketing-home-page" transform="translate(-806.000000, -2534.000000)">
            <g id="Group-12" transform="translate(0.000000, 2385.000000)">
                <g id="Group-11" transform="translate(200.000000, 100.000000)">
                    <g id="Group-17" transform="translate(607.000000, 50.000000)">
                        <circle id="Oval-Copy" stroke="#FFFFFF" cx="17.5" cy="17.5" r="17.5"></circle>
                        <g id="twitter-circular-button" transform="translate(7.000000, 8.400000)" fill="#FFFFFF">
                            <path d="M18.2187647,5.48153072 C18.2187647,5.29786536 18.2154706,5.11586536 18.2072941,4.93553072 C18.9845882,4.3498 19.6587647,3.6168634 20.1922353,2.77799804 C19.4787647,3.1023268 18.7129412,3.31906144 17.9078235,3.41000196 C18.7292941,2.8987366 19.3592941,2.08140196 19.6571176,1.10026732 C18.888,1.57180196 18.0371176,1.90933464 17.1321765,2.08473268 C16.4072941,1.25080392 15.3731176,0.71973268 14.2292353,0.69986732 C12.0332353,0.66346732 10.2528824,2.53973268 10.2528824,4.89080392 C10.2528824,5.22500588 10.2872353,5.54933464 10.3559412,5.86200588 C7.04888235,5.6469366 4.11817647,3.90633856 2.15776471,1.28226732 C1.81576471,1.911 1.61941176,2.64560196 1.61941176,3.43319804 C1.61941176,4.9223268 2.32141176,6.24593072 3.38829412,7.02686536 C2.73541176,6.9971268 2.12341176,6.7969268 1.58670588,6.46926732 C1.58670588,6.48746732 1.58670588,6.50566732 1.58670588,6.52386732 C1.58670588,8.60532876 2.958,10.349198 4.77758824,10.7562 C4.44376471,10.8521366 4.09194118,10.9018 3.73029412,10.9001941 C3.47341176,10.8985288 3.22464706,10.8703961 2.98247059,10.817402 C3.48811765,12.5232654 4.95758824,13.7691327 6.697,13.8104693 C5.33552941,14.9520732 3.62064706,15.6337405 1.75847059,15.6288039 C1.43770588,15.6288039 1.12029412,15.6073327 0.809352941,15.567602 C2.57011765,16.7886673 4.65970588,17.5000732 6.90641176,17.5000732 C14.2194118,17.501798 18.2187647,11.0656 18.2187647,5.48153072 Z" id="Path"></path>
                        </g>
                    </g>
                </g>
            </g>
        </g>
    </g>
</svg>