<?xml version="1.0" encoding="UTF-8"?>
<svg width="24px" height="24px" viewBox="0 0 24 24" version="1.1" xmlns="http://www.w3.org/2000/svg" xmlns:xlink="http://www.w3.org/1999/xlink">
    <!-- Generator: Sketch 52.5 (67469) - http://www.bohemiancoding.com/sketch -->
    <title>web-design</title>
    <desc>Created with Sketch.</desc>
    <g id="Page-1" stroke="none" stroke-width="1" fill="none" fill-rule="evenodd">
        <g id="Digital-Marketing-home-page" transform="translate(-520.000000, -1033.000000)" fill="#000000">
            <g id="Group-15" transform="translate(0.000000, 556.000000)">
                <g id="Group-14">
                    <g id="Services" transform="translate(200.000000, 387.000000)">
                        <g id="Group-8-Copy" transform="translate(300.000000, 70.000000)">
                            <g id="web-design" transform="translate(20.000000, 20.000000)">
                                <rect id="Rectangle" x="4.35098592" y="3.16638342" width="6.39369014" height="1.49222798"></rect>
                                <path d="M19.3619155,4.84563731 C19.5851268,4.84563731 19.8024789,4.74615544 19.960338,4.57206218 C20.1169577,4.39796891 20.2069859,4.15796891 20.2069859,3.91299482 C20.2069859,3.6667772 20.1168451,3.4267772 19.960338,3.25268394 C19.8025915,3.0798342 19.5851268,2.98035233 19.3619155,2.98035233 C19.1399437,2.98035233 18.9225915,3.0798342 18.7647324,3.25268394 C18.6081127,3.4267772 18.5168451,3.6667772 18.5168451,3.91299482 C18.5168451,4.15796891 18.6082254,4.39796891 18.7647324,4.57206218 C18.9225915,4.74615544 19.1399437,4.84563731 19.3619155,4.84563731 Z" id="Path"></path>
                                <path d="M16.319662,4.84563731 C16.5428732,4.84563731 16.7602254,4.74615544 16.9180845,4.57206218 C17.0747042,4.39796891 17.1647324,4.15796891 17.1647324,3.91299482 C17.1647324,3.6667772 17.0745915,3.4267772 16.9180845,3.25268394 C16.760338,3.0798342 16.5428732,2.98035233 16.319662,2.98035233 C16.0976901,2.98035233 15.880338,3.0798342 15.7224789,3.25268394 C15.5647324,3.4267772 15.4745915,3.6667772 15.4745915,3.91299482 C15.4745915,4.15796891 15.5647324,4.39796891 15.7224789,4.57206218 C15.880338,4.74615544 16.0976901,4.84563731 16.319662,4.84563731 Z" id="Path"></path>
                                <path d="M13.2774085,4.84563731 C13.500507,4.84563731 13.7179718,4.74615544 13.875831,4.57206218 C14.0324507,4.39796891 14.1224789,4.15796891 14.1224789,3.91299482 C14.1224789,3.6667772 14.032338,3.4267772 13.875831,3.25268394 C13.7180845,3.0798342 13.5006197,2.98035233 13.2774085,2.98035233 C13.0554366,2.98035233 12.8380845,3.0798342 12.6802254,3.25268394 C12.5224789,3.4267772 12.432338,3.6667772 12.432338,3.91299482 C12.432338,4.15796891 12.5224789,4.39796891 12.6802254,4.57206218 C12.8380845,4.74615544 13.0554366,4.84563731 13.2774085,4.84563731 Z" id="Path"></path>
                                <path d="M0,0.0843108808 L0,23.912456 L23.9971831,23.912456 L23.9971831,0.0843108808 L0,0.0843108808 Z M22.3070423,1.94959585 L22.3070423,5.87564767 L1.69014085,5.87564767 L1.69014085,1.94959585 L22.3070423,1.94959585 Z M1.69014085,22.0472953 L1.69014085,7.74093264 L22.3070423,7.74093264 L22.3070423,22.0472953 L1.69014085,22.0472953 Z" id="Shape" fill-rule="nonzero"></path>
                                <path d="M7.03492958,16.7527461 L6.93566197,20.3573472 L10.2014648,20.2474197 L17.3202254,12.3909637 L14.1536901,8.89691192 L7.03492958,16.7527461 Z M9.62433803,18.7738446 L8.33070423,18.8174922 L8.37002817,17.3896788 L11.9430986,13.4465907 L13.1974085,14.8306321 L9.62433803,18.7738446 Z M15.4078873,12.3910881 L14.1535775,13.7753782 L12.8992676,12.3914611 L14.1535775,11.007171 L15.4078873,12.3910881 Z" id="Shape" fill-rule="nonzero"></path>
                            </g>
                        </g>
                    </g>
                </g>
            </g>
        </g>
    </g>
</svg>