<?xml version="1.0" encoding="UTF-8"?>
<svg width="24px" height="24px" viewBox="0 0 24 24" version="1.1" xmlns="http://www.w3.org/2000/svg" xmlns:xlink="http://www.w3.org/1999/xlink">
    <!-- Generator: Sketch 52.5 (67469) - http://www.bohemiancoding.com/sketch -->
    <title>web-development</title>
    <desc>Created with Sketch.</desc>
    <g id="Page-1" stroke="none" stroke-width="1" fill="none" fill-rule="evenodd">
        <g id="Digital-Marketing-home-page" transform="translate(-220.000000, -963.000000)" fill="#000000">
            <g id="Group-15" transform="translate(0.000000, 556.000000)">
                <g id="Group-14">
                    <g id="Services" transform="translate(200.000000, 387.000000)">
                        <g id="Group-8">
                            <g id="web-development" transform="translate(20.000000, 20.000000)">
                                <path d="M11.9998883,15.7714286 C11.8105057,15.7714286 11.6571429,16.0784372 11.6571429,16.4570791 C11.6571429,16.8357209 11.8105377,17.1428571 11.9998883,17.1428571 C12.1893347,17.1428571 12.3428571,16.8357209 12.3428571,16.4570791 C12.3428571,16.0784372 12.1893347,15.7714286 11.9998883,15.7714286 Z" id="Path"></path>
                                <path d="M23.5102041,0 L0.489795918,0 C0.219281633,0 0,0.239842498 0,0.535721461 L0,18.0782421 C0,18.3740675 0.219281633,18.6139636 0.489795918,18.6139636 L9.04706939,18.6139636 L8.19031837,20.8870297 L6.57986939,20.8870297 C6.30940408,20.8870297 6.09007347,21.1269258 6.09007347,21.4227512 L6.09007347,23.4642785 C6.09007347,23.7601575 6.30940408,24 6.57986939,24 L17.4201796,24 C17.6906449,24 17.9099755,23.7601575 17.9099755,23.4642785 L17.9099755,21.4227512 C17.9099755,21.1269258 17.6906449,20.8870297 17.4201796,20.8870297 L15.8097796,20.8870297 L14.9529796,18.6139636 L23.5102041,18.6139636 C23.7806694,18.6139636 24,18.3740675 24,18.0782421 L24,0.535721461 C24,0.239788926 23.7806694,0 23.5102041,0 Z M23.0204082,1.07144292 L23.0204082,13.9770265 L0.979591837,13.9770265 L0.979591837,1.07144292 L23.0204082,1.07144292 Z M16.9303837,22.9285571 L7.06966531,22.9285571 L7.06966531,21.9584727 L16.9303837,21.9584727 L16.9303837,22.9285571 Z M14.7501551,20.8870297 L9.24989388,20.8870297 L10.1066449,18.6139636 L13.8933551,18.6139636 L14.7501551,20.8870297 Z M0.979591837,17.5425207 L0.979591837,15.0484694 L23.0204082,15.0484694 L23.0204082,17.5425207 L0.979591837,17.5425207 Z" id="Shape" fill-rule="nonzero"></path>
                                <path d="M15.7714286,7.54290981 C15.7714286,7.25210923 15.5554775,7.01628797 15.2891313,7.01634064 L14.7748609,7.0163933 C14.7457813,6.83349754 14.7026683,6.65586799 14.6453289,6.48555849 L15.0900107,6.20518503 C15.3206222,6.05967942 15.3996628,5.73759751 15.2664174,5.48576695 C15.133172,5.23393639 14.8383249,5.14751775 14.6076652,5.29307602 L14.1616813,5.5743974 C14.0539951,5.43384204 13.9350725,5.30397709 13.8063602,5.18632977 L14.0639776,4.69936257 C14.197223,4.44753201 14.1182307,4.12539743 13.8876192,3.97994449 C13.6570077,3.83438621 13.3620642,3.92069953 13.2288188,4.17253009 L12.9720212,4.65807542 C12.8160618,4.59546008 12.6533992,4.54832743 12.4859141,4.51651947 L12.4859141,3.95519326 C12.4859141,3.66434002 12.2700112,3.42857143 12.0036651,3.42857143 C12.0024595,3.42857143 12.0012056,3.42878208 12,3.42878208 C11.9987944,3.42878208 11.9975405,3.42857143 11.9963349,3.42857143 C11.730037,3.42857143 11.5140859,3.66434002 11.5140859,3.95519326 L11.5140859,4.51646681 C11.3466008,4.54827476 11.1839382,4.59535476 11.0279788,4.65802275 L10.7711812,4.17247743 C10.6379358,3.92064687 10.3429923,3.83433355 10.1123808,3.97989182 C9.88176934,4.12534477 9.80277695,4.44747935 9.93602236,4.69930991 L10.1936398,5.18627711 C10.0649275,5.30392443 9.94600491,5.43378937 9.8383187,5.57434474 L9.3923348,5.29302336 C9.16167508,5.14746508 8.86682803,5.23388373 8.73358262,5.48571429 C8.60033721,5.73754485 8.67937783,6.05962676 8.90998931,6.20513237 L9.35467115,6.48550583 C9.29733174,6.65581533 9.25421867,6.83344487 9.22513906,7.01634064 L8.71086869,7.01628797 C8.44452255,7.01623531 8.22857143,7.25205657 8.22857143,7.54285714 C8.22857143,7.83371038 8.44452255,8.06947897 8.71086869,8.06947897 L9.22513906,8.06942631 C9.25417045,8.25226941 9.29733174,8.42989895 9.35467115,8.60020845 L8.90998931,8.88063458 C8.67937783,9.02614019 8.60033721,9.34816944 8.73358262,9.60005266 C8.86682803,9.85183056 9.16167508,9.9382492 9.3923348,9.79269093 L9.8383187,9.51136955 C9.94600491,9.65197757 10.0649275,9.78184252 10.1936398,9.89943717 L9.93602236,10.386457 C9.80277695,10.6382876 9.88176934,10.9603695 10.1123808,11.1058225 C10.3429923,11.2513807 10.6379358,11.1650674 10.7711812,10.9132895 L11.0279788,10.4276915 C11.1839382,10.4903069 11.3466008,10.5374922 11.5140859,10.5692475 L11.5140859,11.130521 C11.5140859,11.4213743 11.730037,11.6571429 11.9963349,11.6571429 C11.9975405,11.6571429 11.9987944,11.6569322 12,11.6569322 C12.0012056,11.6569322 12.0024595,11.6571429 12.0036651,11.6571429 C12.2700112,11.6571429 12.4859141,11.4213743 12.4859141,11.130521 L12.4859141,10.5692475 C12.6533992,10.5374922 12.8160618,10.4903595 12.9720212,10.4276915 L13.2288188,10.9132895 C13.3620642,11.1650674 13.6570077,11.2513807 13.8876192,11.1058225 C14.1182307,10.9603695 14.197223,10.6382876 14.0639776,10.386457 L13.8063602,9.89943717 C13.9350725,9.78184252 14.0539951,9.65197757 14.1616813,9.51136955 L14.6076652,9.79269093 C14.8383249,9.9382492 15.1332202,9.85183056 15.2664174,9.60005266 C15.3996628,9.34816944 15.3206222,9.02614019 15.0900107,8.88063458 L14.6453289,8.60020845 C14.7026683,8.42989895 14.7457813,8.25226941 14.7748609,8.06942631 L15.2891313,8.06947897 C15.5554775,8.06953164 15.7714286,7.83376304 15.7714286,7.54290981 Z M12.0036169,9.56218855 C12.0024112,9.56218855 12.0011574,9.56208323 11.9999518,9.56208323 C11.9987462,9.56208323 11.9974923,9.56218855 11.9962867,9.56218855 C10.976764,9.56218855 10.1473439,8.656399 10.1473439,7.54290981 C10.1473439,6.42947327 10.976764,5.52363106 11.9962867,5.52363106 C11.9974923,5.52363106 11.9987462,5.52373638 11.9999518,5.52373638 C12.0011574,5.52373638 12.0024112,5.52363106 12.0036169,5.52363106 C13.0231396,5.52363106 13.8525597,6.42947327 13.8525597,7.54290981 C13.8525597,8.65634634 13.0231396,9.56218855 12.0036169,9.56218855 Z" id="Shape" fill-rule="nonzero"></path>
                            </g>
                        </g>
                    </g>
                </g>
            </g>
        </g>
    </g>
</svg>